<svg width="28" height="80" viewBox="0 0 28 80" fill="none" xmlns="http://www.w3.org/2000/svg">
<path d="M14.3509 58.1968L11.7139 59.3119C3.40152 62.8266 -2 70.9751 -2 80L-2.00001 2.44784e-06C-2.00001 9.38273 3.46963 18.0567 12 21.9642L14.8662 23.2771C21.6501 26.3846 26 33.1617 26 40.6235C26 48.2896 21.4117 55.2113 14.3509 58.1968Z" fill="white"/>
<path d="M19.75 39.9999C19.75 39.5857 19.4142 39.2499 19 39.2499L10 39.2499L8.01777 39.2499C7.57312 39.2491 7.35006 38.7112 7.66421 38.3963L9.03033 37.0302L12.5303 33.5302C12.8232 33.2373 12.8232 32.7624 12.5303 32.4695C12.2374 32.1767 11.7626 32.1767 11.4697 32.4695L4.46967 39.4695C4.24869 39.6905 4.19443 40.0151 4.30691 40.287C4.34351 40.3754 4.39776 40.4583 4.46967 40.5302L7.96967 44.0302L11.4697 47.5302C11.7626 47.8231 12.2374 47.8231 12.5303 47.5302C12.8232 47.2373 12.8232 46.7624 12.5303 46.4695L9.03033 42.9695L7.66421 41.6034C7.34923 41.2885 7.57232 40.7499 8.01777 40.7499L10 40.7499L19 40.7499C19.4142 40.7499 19.75 40.4141 19.75 39.9999Z" fill="#404040"/>
</svg>
